<svg xmlns="http://www.w3.org/2000/svg" width="256" height="512"><title>Blank fundraising thermometer</title><metadata id="metadata7">image/svg+xmlThermometer2006-11-06Trent Buck &lt;twb@cyber.com.au&gt;</metadata><g><title>Layer 1</title><g id="svg_113"><g id="svg_76"><line id="svg_11" x1="67.2" x2="91.2" y1="425.5" y2="425.5" fill="none" fill-opacity=".75" stroke="#000" stroke-width="4"/><line id="svg_14" x1="114.95" x2="67.249" y1="406.95" y2="406.95" fill="none" fill-opacity=".75" stroke="#000" stroke-width="4"/></g><g id="svg_77"><line id="svg_78" x1="67.35" x2="91.35" y1="388.801" y2="388.801" fill="none" fill-opacity=".75" stroke="#000" stroke-width="4"/><line id="svg_79" x1="115.1" x2="67.399" y1="370.251" y2="370.251" fill="none" fill-opacity=".75" stroke="#000" stroke-width="4"/></g><g id="svg_80"><line id="svg_81" x1="67.35" x2="91.35" y1="351.551" y2="351.551" fill="none" fill-opacity=".75" stroke="#000" stroke-width="4"/><line id="svg_82" x1="115.1" x2="67.399" y1="333.001" y2="333.001" fill="none" fill-opacity=".75" stroke="#000" stroke-width="4"/></g><g id="svg_83"><line id="svg_84" x1="67.274" x2="91.274" y1="314.525" y2="314.525" fill="none" fill-opacity=".75" stroke="#000" stroke-width="4"/><line id="svg_85" x1="115.024" x2="67.323" y1="295.975" y2="295.975" fill="none" fill-opacity=".75" stroke="#000" stroke-width="4"/></g><g id="svg_86"><line id="svg_87" x1="67.425" x2="91.425" y1="277.826" y2="277.826" fill="none" fill-opacity=".75" stroke="#000" stroke-width="4"/><line id="svg_88" x1="115.175" x2="67.474" y1="259.276" y2="259.276" fill="none" fill-opacity=".75" stroke="#000" stroke-width="4"/></g><g id="svg_89"><line id="svg_90" x1="67.425" x2="91.425" y1="240.576" y2="240.576" fill="none" fill-opacity=".75" stroke="#000" stroke-width="4"/><line id="svg_91" x1="115.175" x2="67.474" y1="222.026" y2="222.026" fill="none" fill-opacity=".75" stroke="#000" stroke-width="4"/></g><g id="svg_92"><line id="svg_93" x1="67.274" x2="91.274" y1="203.525" y2="203.525" fill="none" fill-opacity=".75" stroke="#000" stroke-width="4"/><line id="svg_94" x1="115.024" x2="67.323" y1="184.975" y2="184.975" fill="none" fill-opacity=".75" stroke="#000" stroke-width="4"/></g><g id="svg_95"><line id="svg_96" x1="67.425" x2="91.425" y1="166.826" y2="166.826" fill="none" fill-opacity=".75" stroke="#000" stroke-width="4"/><line id="svg_97" x1="115.175" x2="67.474" y1="148.276" y2="148.276" fill="none" fill-opacity=".75" stroke="#000" stroke-width="4"/></g><g id="svg_98"><line id="svg_99" x1="67.425" x2="91.425" y1="129.576" y2="129.576" fill="none" fill-opacity=".75" stroke="#000" stroke-width="4"/><line id="svg_100" x1="115.175" x2="67.474" y1="111.026" y2="111.026" fill="none" fill-opacity=".75" stroke="#000" stroke-width="4"/></g><g id="svg_110"><line id="svg_111" x1="67.35" x2="91.35" y1="92.549" y2="92.549" fill="none" fill-opacity=".75" stroke="#000" stroke-width="4"/><line id="svg_112" x1="115.1" x2="67.399" y1="73.999" y2="73.999" fill="none" fill-opacity=".75" stroke="#000" stroke-width="4"/></g></g><g id="svg_116"><rect id="svg_114" width="31.75" height="6.25" x="29.5" y="436.75" fill="#c00" stroke-linecap="round" stroke-linejoin="round" stroke-width="4"/><path id="path2924" fill="#c00" fill-rule="nonzero" stroke-dashoffset="0" stroke-linecap="round" stroke-linejoin="round" stroke-miterlimit="4" stroke-width="4" d="m81,474a35.5,35.5 0 1 1 -71,0a35.5,35.5 0 1 1 71,0z"/></g><path id="rect2968" fill="none" fill-rule="nonzero" stroke="#000" stroke-dashoffset="0" stroke-linecap="round" stroke-linejoin="round" stroke-miterlimit="4" stroke-width="4" d="m45.5,11c-9.8335,0 -17.75,7.9165 -17.75,17.75l0,412.999512c-10.610411,6.140503 -17.75,17.617615 -17.75,30.750488c0,19.596008 15.903999,35.5 35.5,35.5c19.596001,0 35.5,-15.903992 35.5,-35.5c0,-13.132874 -7.13958,-24.609985 -17.75,-30.750488l0,-412.999512c0,-9.8335 -7.9165,-17.75 -17.75,-17.75z"/></g></svg>