<svg xmlns="http://www.w3.org/2000/svg" xmlns:xlink="http://www.w3.org/1999/xlink" id="Capa_1" width="512" height="512" x="0" y="0" enable-background="new 0 0 512 512" version="1.1" viewBox="0 0 512 512" xml:space="preserve"><g><path fill="#FFF" d="M308.857,105.104v56.143c14.951,6.526,28.699,15.861,40.581,27.742 c24.959,24.959,38.704,58.143,38.704,93.439c0,35.296-13.745,68.48-38.704,93.438c-24.959,24.959-58.142,38.704-93.438,38.704 s-68.48-13.745-93.439-38.704c-24.958-24.958-38.704-58.143-38.704-93.438c0-35.296,13.746-68.48,38.704-93.439 c11.882-11.882,25.631-21.217,40.583-27.743v-56.143C126.728,127.85,71,198.625,71,282.429c0,102.173,82.828,185,185,185 c102.174,0,185-82.827,185-185C441,198.625,385.273,127.85,308.857,105.104z M229.571,44.571h52.857V256h-52.857V44.571z"/></g></svg>